<svg id="Capa_2" data-name="Capa 2" xmlns="http://www.w3.org/2000/svg" viewBox="0 0 606.46 131.65"><defs><style>.cls-1{fill:#712699;}.cls-2{fill:#3a3737;}</style></defs><path class="cls-1" d="M164.67,12.76H42.53a14.09,14.09,0,0,0-14.09,14.1v4.7h-4.7A14.09,14.09,0,0,0,9.65,45.65V130.2a14.09,14.09,0,0,0,14.09,14.1H145.88A14.09,14.09,0,0,0,160,130.2v-4.69h4.7a14.09,14.09,0,0,0,14.09-14.1V26.86A14.09,14.09,0,0,0,164.67,12.76ZM150.58,130.2a4.71,4.71,0,0,1-4.7,4.7H23.74a4.71,4.71,0,0,1-4.7-4.7V45.65a4.71,4.71,0,0,1,4.7-4.7h4.7v70.46a14.09,14.09,0,0,0,14.09,14.1H150.58Zm18.79-18.79a4.71,4.71,0,0,1-4.7,4.7H42.53a4.71,4.71,0,0,1-4.7-4.7V26.86a4.71,4.71,0,0,1,4.7-4.7H164.67a4.71,4.71,0,0,1,4.7,4.7Zm-108-49.32A16.44,16.44,0,1,0,44.88,45.65,16.44,16.44,0,0,0,61.32,62.09Zm0-23.49a7,7,0,1,1-7,7A7.05,7.05,0,0,1,61.32,38.6Zm70.75,6.76a7,7,0,0,0-10,0L94.2,73.26l-9.11-9.11a7,7,0,0,0-10,0L49.29,90a7,7,0,0,0-2.06,5v8.22a3.53,3.53,0,0,0,3.52,3.53h105.7a3.53,3.53,0,0,0,3.52-3.53v-27a7,7,0,0,0-2.06-5Zm18.51,52h-94V96L80.11,72.46,94.2,86.55l32.89-32.88,23.49,23.49Z" transform="translate(-9.65 -12.76)"/><path class="cls-2" d="M200.36,17.27v-3h43.57v3H223.85V71.11h-3.5V17.27Z" transform="translate(-9.65 -12.76)"/><path class="cls-2" d="M251.34,14.24V48.33c0,6.85,1.43,21.11,17.84,21.11,13.94,0,18.64-8.21,18.64-21.11V14.24h3.51V48.33c0,13.54-5.1,24.14-22.15,24.14-20.23,0-21.35-16.57-21.35-24.14V14.24Z" transform="translate(-9.65 -12.76)"/><path class="cls-2" d="M338.49,30.49c-.4-9.72-7.73-14.58-18.25-14.58-6.45,0-15.61,2.71-15.61,12.11,0,9.16,9.72,10.67,19.36,12.66s19.43,4.46,19.43,15.78c0,11.78-11.31,16-20,16-13.3,0-24.13-5.5-24-20.16H303c-.72,12.43,9.24,17.13,20.47,17.13,6.85,0,16.49-3.11,16.49-13,0-9.64-9.72-11.32-19.44-13.31S301.13,38.85,301.13,28s10.11-15.14,19.11-15.14c11.87,0,21.19,5.1,21.75,17.61Z" transform="translate(-9.65 -12.76)"/><path class="cls-2" d="M377.2,43.07v28h-3.5V14.24h35.68v3H377.2V40.05h29v3Z" transform="translate(-9.65 -12.76)"/><path class="cls-2" d="M439.18,72.47c-17.05,0-27.09-13.15-27.09-29.79s10-29.8,27.09-29.8,27,13.15,27,29.8S456.14,72.47,439.18,72.47Zm0-3c14.81,0,23.5-12.19,23.5-26.76S454,15.91,439.18,15.91,415.6,28.1,415.6,42.68,424.28,69.44,439.18,69.44Z" transform="translate(-9.65 -12.76)"/><path class="cls-2" d="M467.54,17.27v-3h43.57v3H491V71.11h-3.51V17.27Z" transform="translate(-9.65 -12.76)"/><path class="cls-2" d="M539.55,72.47c-17,0-27.08-13.15-27.08-29.79s10-29.8,27.08-29.8,27,13.15,27,29.8S556.52,72.47,539.55,72.47Zm0-3c14.82,0,23.5-12.19,23.5-26.76s-8.68-26.77-23.5-26.77S516,28.1,516,42.68,524.66,69.44,539.55,69.44Z" transform="translate(-9.65 -12.76)"/><path class="cls-2" d="M611.17,30.49c-.4-9.72-7.73-14.58-18.24-14.58-6.46,0-15.62,2.71-15.62,12.11,0,9.16,9.72,10.67,19.36,12.66s19.44,4.46,19.44,15.78c0,11.78-11.32,16-20,16-13.3,0-24.13-5.5-24-20.16h3.5c-.72,12.43,9.24,17.13,20.47,17.13,6.85,0,16.49-3.11,16.49-13,0-9.64-9.72-11.32-19.44-13.31S573.81,38.85,573.81,28s10.11-15.14,19.12-15.14c11.86,0,21.18,5.1,21.74,17.61Z" transform="translate(-9.65 -12.76)"/><path class="cls-2" d="M222.5,86.19h12.82l21.27,56.87h-13l-4.3-12.66H218l-4.46,12.66H200.91Zm-1.2,34.89H236l-7.17-20.87h-.16Z" transform="translate(-9.65 -12.76)"/><path class="cls-2" d="M283.68,86.19h12.51v46.36h27.72v10.51H283.68Z" transform="translate(-9.65 -12.76)"/><path class="cls-2" d="M330.92,86.19h12.51v56.87H330.92Z" transform="translate(-9.65 -12.76)"/><path class="cls-2" d="M354.42,86.19h26.76c10.84,0,18.17,3.5,18.17,14.1,0,5.57-2.79,9.48-7.73,11.87,6.93,2,10.43,7.32,10.43,14.41,0,11.55-9.79,16.49-20.07,16.49H354.42Zm12.51,23h12.66c4.38,0,7.65-2,7.65-6.77,0-5.42-4.14-6.53-8.6-6.53H366.93Zm0,24.13h13.38c4.94,0,9.24-1.59,9.24-7.48s-3.67-8.13-9-8.13H366.93Z" transform="translate(-9.65 -12.76)"/><path class="cls-2" d="M410.5,86.19h30.67c10.2,0,16.65,7.09,16.65,15.69,0,6.69-2.71,11.71-9,14.26v.16c6.13,1.59,7.88,7.57,8.28,13.3.24,3.59.16,10.28,2.39,13.46H447c-1.51-3.58-1.35-9.08-2-13.62-.87-6-3.18-8.6-9.48-8.6H423v22.22H410.5ZM423,111.92h13.7c5.57,0,8.6-2.39,8.6-8.13,0-5.49-3-7.88-8.6-7.88H423Z" transform="translate(-9.65 -12.76)"/><path class="cls-2" d="M493.51,84.83c17.6,0,28,13.15,28,30,0,16.4-10.36,29.55-28,29.55s-28-13.15-28-29.55C465.55,98,475.9,84.83,493.51,84.83Zm0,49.07c11.23,0,15.45-9.56,15.45-19,0-10-4.22-19.52-15.45-19.52s-15.46,9.56-15.46,19.52C478.05,124.34,482.27,133.9,493.51,133.9Z" transform="translate(-9.65 -12.76)"/></svg>